<svg width="19" height="18" viewBox="0 0 19 18" fill="none" xmlns="http://www.w3.org/2000/svg">
<path d="M17.9191 13.0999V15.5999C17.9201 15.832 17.8725 16.0617 17.7796 16.2744C17.6866 16.487 17.5502 16.6779 17.3792 16.8348C17.2082 16.9917 17.0063 17.1112 16.7864 17.1855C16.5666 17.2599 16.3336 17.2875 16.1025 17.2666C13.5382 16.988 11.075 16.1117 8.9108 14.7083C6.89732 13.4288 5.19025 11.7217 3.9108 9.70825C2.50245 7.53425 1.626 5.05908 1.35247 2.48325C1.33164 2.25281 1.35903 2.02055 1.43288 1.80127C1.50674 1.58199 1.62544 1.38049 1.78144 1.2096C1.93743 1.03871 2.1273 0.902176 2.33896 0.808686C2.55061 0.715197 2.77942 0.666803 3.0108 0.666585H5.5108C5.91522 0.662604 6.30729 0.805817 6.61393 1.06953C6.92058 1.33324 7.12086 1.69946 7.17747 2.09992C7.28299 2.89997 7.47868 3.68552 7.7608 4.44158C7.87292 4.73985 7.89719 5.06401 7.83072 5.37565C7.76426 5.68729 7.60985 5.97334 7.3858 6.19992L6.32747 7.25825C7.51376 9.34454 9.24118 11.072 11.3275 12.2583L12.3858 11.1999C12.6124 10.9759 12.8984 10.8215 13.2101 10.755C13.5217 10.6885 13.8459 10.7128 14.1441 10.8249C14.9002 11.107 15.6857 11.3027 16.4858 11.4083C16.8906 11.4654 17.2603 11.6693 17.5246 11.9812C17.7889 12.2931 17.9293 12.6912 17.9191 13.0999Z" fill="#020F59" stroke="#020F59" stroke-linecap="round" stroke-linejoin="round"/>
</svg>
